<?xml version="1.0" encoding="UTF-8"?>
<svg width="50px" height="50px" viewBox="0 -20 70 90" version="1.1" xmlns="http://www.w3.org/2000/svg" xmlns:xlink="http://www.w3.org/1999/xlink">
    <!-- Generator: Sketch 47.1 (45422) - http://www.bohemiancoding.com/sketch -->
    <title>love-photo-session</title>
    <desc>Created with Sketch.</desc>
    <defs></defs>
	<circle cx="30" cy="25" fill="#333" r="40" />
    <g id="Stage" stroke="none" stroke-width="1" fill="none" fill-rule="evenodd">
        <g id="Artboard" transform="translate(-163.000000, -218.000000)" fill="#FFFFFF">
            <path d="M210.436118,263 C213.903738,258.972877 216,253.731243 216,248 C216,235.297451 205.702549,225 193,225 C180.297451,225 170,235.297451 170,248 C170,253.731243 172.096262,258.972877 175.563882,263 L169.409713,263 C167.180916,263 166.372701,262.767936 165.557886,262.332168 C164.743071,261.896401 164.103599,261.256929 163.667832,260.442114 C163.232064,259.627299 163,258.819084 163,256.590287 L163,228.409713 C163,226.180916 163.232064,225.372701 163.667832,224.557886 C164.103599,223.743071 164.743071,223.103599 165.557886,222.667832 C166.372701,222.232064 167.180916,222 169.409713,222 L170,222 C170,220.895431 170.895431,220 172,220 L175,220 C176.104569,220 177,220.895431 177,222 L181,222 L182.185082,219.629835 L182.185082,219.629835 C182.684518,218.630965 183.70544,218 184.822211,218 L184.822211,218 L201.177789,218 L201.177789,218 C202.29456,218 203.315482,218.630965 203.814918,219.629835 L205,222 L216.590287,222 C218.819084,222 219.627299,222.232064 220.442114,222.667832 C221.256929,223.103599 221.896401,223.743071 222.332168,224.557886 C222.767936,225.372701 223,226.180916 223,228.409713 L223,256.590287 C223,258.819084 222.767936,259.627299 222.332168,260.442114 C221.896401,261.256929 221.256929,261.896401 220.442114,262.332168 C219.627299,262.767936 218.819084,263 216.590287,263 L210.436118,263 Z M214,230 L217,230 C217.552285,230 218,229.552285 218,229 C218,228.447715 217.552285,228 217,228 L214,228 C213.447715,228 213,228.447715 213,229 C213,229.552285 213.447715,230 214,230 Z M193,269 C181.40202,269 172,259.59798 172,248 C172,236.40202 181.40202,227 193,227 C204.59798,227 214,236.40202 214,248 C214,259.59798 204.59798,269 193,269 Z M188,240 C184.686292,240 182,242.686292 182,246 C182,249.313708 186.925078,255.616696 193,259 C199.074922,255.616696 204,249.313708 204,246 C204,242.686292 201.313708,240 198,240 C195.913029,240 194.074922,241.065509 193,242.682205 C191.925078,241.065509 190.086971,240 188,240 Z" id="love-photo-session"></path>
        </g>
    </g>
</svg>