<svg viewBox="0 0 22 22" version="1.1" xmlns="http://www.w3.org/2000/svg" xmlns:xlink="http://www.w3.org/1999/xlink">
    <g id="icons" stroke="none" stroke-width="1" fill="none" fill-rule="evenodd">
        <g id="Artboard" fill-rule="nonzero" fill="currentColor">
            <path d="m 6.676135,16.030975 -5.64581,5.6458 -0.7071,-0.7071 5.6458,-5.64581 c -1.42546,-1.59235 -2.29225,-3.69527 -2.29225,-6.0006398 0,-4.97056 4.02944,-9.00000001 9,-9.00000001 4.97056,0 9,4.02944001 9,9.00000001 0,4.9705598 -4.02944,8.9999998 -9,8.9999998 -2.30537,0 -4.40829,-0.86679 -6.00064,-2.29225 z m 6.00064,1.29225 c 4.41828,0 8,-3.58172 8,-7.9999998 0,-4.41828 -3.58172,-8 -8,-8 -4.41828,0 -8,3.58172 -8,8 0,4.4182798 3.58172,7.9999998 8,7.9999998 z" id="search"></path>
        </g>
    </g>
</svg>
