<?xml version="1.0" standalone="no"?>
<!DOCTYPE svg PUBLIC "-//W3C//DTD SVG 20010904//EN"
 "http://www.w3.org/TR/2001/REC-SVG-20010904/DTD/svg10.dtd">
<svg version="1.0" xmlns="http://www.w3.org/2000/svg"
 width="960.000000pt" height="960.000000pt" viewBox="0 0 960.000000 960.000000"
 preserveAspectRatio="xMidYMid meet">
<metadata>
Created by potrace 1.14, written by Peter Selinger 2001-2017
</metadata>
<g transform="translate(0.000000,960.000000) scale(0.100000,-0.100000)"
fill="#000000" stroke="none">
<path d="M3365 8860 c-89 -26 -143 -58 -207 -122 -48 -49 -72 -87 -163 -270
-59 -117 -111 -217 -115 -222 -5 -5 -20 -8 -34 -7 -14 1 -33 1 -41 1 -8 0 -23
0 -32 0 -10 0 -34 0 -53 -1 -19 0 -41 0 -47 0 -13 1 -31 1 -58 1 -8 0 -40 0
-70 1 -31 1 -58 -1 -61 -4 -4 -3 -17 -2 -30 3 -13 5 -24 6 -24 2 0 -4 -11 -7
-25 -7 -14 0 -25 2 -25 5 0 3 -24 5 -54 5 -30 0 -52 -3 -50 -7 2 -3 -5 -4 -16
-1 -11 3 -20 13 -21 22 -5 102 -63 197 -158 255 -62 39 -106 47 -276 46 -90
-1 -104 -1 -127 1 -7 0 -51 1 -98 0 -47 0 -92 0 -100 1 -56 4 -183 -27 -216
-54 -81 -66 -122 -131 -138 -218 -8 -49 -16 -59 -39 -51 -11 4 -38 5 -59 1
-22 -4 -38 -3 -38 2 0 5 -5 6 -10 3 -6 -4 -61 -8 -123 -10 -195 -7 -323 -37
-447 -103 -139 -74 -239 -178 -310 -320 -55 -113 -68 -156 -87 -307 -11 -80
-10 -5048 0 -5105 5 -25 11 -61 13 -80 19 -126 96 -280 193 -385 83 -91 240
-187 344 -211 4 -1 9 -3 12 -4 9 -5 50 -11 155 -27 34 -4 259 -15 290 -13 27
2 28 2 75 -3 17 -1 40 1 53 5 13 4 22 3 22 -3 0 -6 6 -6 18 0 11 6 24 6 34 0
10 -6 19 -6 22 0 4 6 18 6 36 1 18 -5 32 -5 35 1 4 5 14 5 25 -1 13 -7 21 -7
25 0 5 8 11 8 19 1 7 -6 16 -8 19 -5 8 9 85 9 93 1 4 -3 14 -2 23 3 10 5 23 5
30 1 7 -5 30 -5 51 -1 21 4 44 4 51 -1 7 -4 21 -3 30 2 10 5 20 5 23 1 3 -5
26 -6 50 -2 25 4 51 3 58 -1 6 -4 19 -4 29 1 9 5 19 7 22 3 10 -9 131 -6 134
4 2 4 -9 22 -24 39 -16 17 -39 45 -53 64 -14 18 -30 38 -36 44 -18 19 -153
210 -166 236 -7 14 -16 27 -19 30 -10 8 -89 141 -89 150 0 5 -4 10 -8 12 -13
5 -176 341 -223 458 -35 88 -46 119 -64 180 -1 3 -4 12 -7 20 -16 42 -54 167
-72 240 -12 47 -38 158 -41 175 -20 107 -28 154 -31 175 -1 14 -5 36 -8 50 -5
26 -11 81 -23 210 -3 41 -7 139 -7 217 -1 81 -5 139 -10 135 -5 -3 -6 0 -2 6
4 7 9 60 11 118 3 99 9 177 20 264 16 123 20 151 30 213 8 40 12 65 19 97 3
14 8 34 10 45 47 230 154 546 252 749 8 16 14 34 14 41 0 6 6 17 13 24 6 6 12
15 12 19 1 25 168 313 259 446 34 49 66 96 71 104 6 9 16 22 23 30 7 8 25 30
39 50 104 140 374 426 502 532 30 25 59 50 65 56 25 24 227 174 296 220 41 27
77 51 80 54 5 5 39 25 85 49 16 9 35 22 43 29 7 6 19 12 27 12 7 0 15 4 17 8
2 4 41 27 87 50 46 23 89 45 95 50 25 19 329 142 436 177 63 20 122 39 130 42
8 3 20 7 25 9 6 1 44 11 85 22 96 25 205 50 250 57 19 3 46 8 60 10 14 3 34 7
45 9 24 4 134 19 155 21 8 0 45 5 82 9 37 4 119 9 182 11 64 2 121 7 127 11 8
4 9 3 5 -4 -5 -9 -1 -9 17 -3 13 5 30 5 37 1 8 -5 22 -4 32 1 10 5 18 6 18 2
0 -4 33 -8 73 -9 84 0 249 -11 292 -19 17 -3 46 -7 65 -10 145 -18 318 -53
475 -97 39 -10 77 -21 85 -23 17 -4 107 -33 130 -42 8 -3 22 -7 30 -9 30 -6
267 -106 375 -158 61 -29 115 -54 120 -56 6 -1 21 -11 34 -21 13 -11 30 -19
37 -19 7 0 19 -6 26 -13 7 -8 36 -26 63 -41 54 -31 247 -155 255 -165 3 -3 28
-22 55 -40 28 -19 52 -37 55 -41 3 -3 21 -17 40 -31 19 -15 46 -36 60 -48 14
-12 48 -41 75 -64 67 -56 355 -345 355 -355 0 -5 14 -21 31 -38 17 -16 49 -54
72 -84 23 -30 45 -56 50 -58 4 -2 7 -8 7 -13 0 -6 9 -20 21 -32 22 -23 158
-224 198 -292 67 -113 93 -160 138 -250 55 -108 88 -181 135 -300 34 -84 45
-114 63 -175 1 -3 4 -12 7 -20 19 -48 62 -195 74 -249 3 -13 12 -51 20 -85 8
-34 17 -72 20 -86 2 -14 7 -36 10 -50 3 -14 8 -43 10 -65 3 -22 7 -47 9 -55
16 -52 37 -292 39 -432 0 -54 4 -98 8 -98 4 0 3 -11 -2 -25 -6 -15 -6 -26 1
-30 5 -4 7 -11 3 -16 -3 -6 -7 -63 -9 -127 -2 -64 -7 -142 -10 -172 -4 -30 -9
-75 -10 -100 -2 -25 -6 -56 -9 -70 -2 -14 -7 -43 -10 -65 -3 -22 -12 -76 -21
-120 -9 -44 -18 -91 -20 -105 -4 -21 -18 -77 -39 -160 -20 -75 -48 -168 -71
-230 -14 -41 -28 -82 -30 -90 -2 -8 -15 -44 -30 -80 -15 -36 -31 -74 -35 -85
-23 -58 -175 -361 -186 -373 -8 -7 -14 -20 -14 -27 0 -7 -6 -20 -13 -27 -8 -7
-26 -36 -42 -63 -36 -66 -162 -250 -180 -265 -8 -7 -15 -18 -15 -25 0 -8 -4
-15 -8 -17 -4 -1 -23 -23 -42 -48 -19 -25 -37 -47 -40 -50 -3 -3 -16 -18 -29
-35 l-23 -30 24 -5 c12 -3 42 -3 66 0 23 4 45 3 48 -2 3 -4 13 -4 23 2 10 5
21 7 25 3 9 -9 58 -10 84 -1 13 4 22 3 22 -3 0 -6 6 -6 18 0 11 6 24 6 34 0
10 -6 19 -6 22 0 4 6 18 6 36 1 18 -5 32 -5 35 1 4 5 14 5 25 -1 13 -7 21 -7
25 0 5 8 11 8 19 1 7 -6 16 -8 19 -5 8 9 85 9 93 1 4 -3 14 -2 23 3 10 5 23 5
30 1 7 -5 30 -5 51 -1 21 4 44 4 51 -1 7 -4 21 -3 30 2 10 5 20 5 23 1 3 -5
26 -6 50 -2 25 4 51 3 57 -1 7 -4 23 -3 36 2 15 5 23 5 23 -2 0 -6 4 -8 9 -5
5 3 67 8 137 12 176 8 204 12 319 46 161 48 300 149 395 288 81 118 120 234
138 405 8 83 9 5004 1 5088 -4 32 -9 60 -13 64 -3 3 -6 18 -6 32 0 40 -27 118
-67 201 -21 41 -40 77 -43 80 -3 3 -16 20 -29 37 -73 106 -251 231 -366 259
-17 4 -36 11 -42 17 -7 5 -13 7 -13 4 0 -3 -17 -1 -37 4 -46 11 -149 21 -220
23 -29 1 -53 5 -53 10 0 5 -6 4 -12 -1 -13 -9 -75 -9 -85 0 -2 3 -18 1 -34 -3
-16 -5 -29 -6 -29 -2 0 8 -129 6 -137 -2 -3 -2 -16 -1 -29 4 -13 5 -24 6 -24
2 0 -5 -15 -7 -32 -5 -38 4 -98 6 -113 3 -26 -4 -107 -2 -112 4 -3 3 -12 1
-20 -5 -7 -6 -13 -8 -13 -3 0 9 -128 9 -137 0 -3 -2 -16 -1 -29 4 -13 5 -24 6
-24 2 0 -5 -15 -7 -32 -5 -38 4 -99 6 -113 3 -5 -1 -32 -1 -60 0 -27 0 -56 1
-62 0 -7 0 -21 0 -30 0 -10 0 -34 0 -53 -1 -19 0 -41 0 -47 0 -17 1 -53 1
-108 0 -16 0 -39 0 -50 1 -11 1 -26 1 -32 1 -7 -1 -21 -1 -30 -1 -10 0 -34 0
-53 -1 -19 0 -41 0 -47 0 -17 1 -53 1 -108 0 -16 0 -39 0 -50 1 -11 1 -26 1
-32 1 -7 -1 -21 -1 -30 -1 -10 0 -34 0 -53 -1 -19 0 -41 0 -47 0 -7 1 -21 1
-30 1 -21 0 -52 1 -71 2 -8 1 -60 95 -118 210 -57 114 -112 218 -121 230 -76
97 -187 168 -292 188 -35 7 -536 10 -1415 9 -1279 -1 -1365 -2 -1421 -19z
m4952 -1582 c65 4 79 4 174 1 37 -1 72 2 78 5 6 4 11 4 11 -1 0 -4 16 -8 35
-8 19 0 35 3 35 7 0 10 70 -20 87 -38 8 -8 18 -14 22 -14 13 0 32 -50 36 -97
6 -59 -15 -105 -65 -142 -43 -31 -45 -31 -285 -32 -167 -1 -318 5 -344 14 -51
18 -93 76 -96 133 -3 61 9 95 46 128 41 36 72 47 135 45 30 -1 57 1 61 5 4 4
9 4 10 -1 2 -4 29 -7 60 -5z"/>
<path d="M4808 7444 c-3 -2 -70 -7 -149 -9 -79 -3 -162 -7 -184 -10 -55 -6
-125 -15 -155 -20 -14 -2 -54 -9 -90 -14 -36 -6 -76 -13 -90 -16 -14 -3 -36
-7 -50 -10 -14 -3 -59 -14 -100 -25 -41 -11 -82 -22 -90 -23 -24 -5 -162 -47
-195 -60 -16 -6 -32 -12 -35 -12 -10 0 -176 -67 -225 -90 -107 -50 -261 -127
-290 -145 -16 -10 -48 -28 -69 -40 -37 -20 -223 -142 -256 -167 -251 -194
-427 -355 -562 -514 -23 -29 -48 -57 -53 -63 -6 -6 -43 -54 -83 -106 -40 -52
-76 -99 -80 -105 -22 -29 -123 -185 -142 -220 -12 -22 -31 -56 -42 -75 -34
-58 -108 -207 -108 -219 0 -6 -4 -11 -8 -11 -6 0 -32 -55 -37 -80 -1 -3 -9
-23 -19 -45 -22 -50 -80 -207 -96 -260 -7 -22 -18 -58 -25 -80 -38 -115 -100
-422 -110 -535 -2 -36 -7 -76 -10 -90 -4 -21 -17 -279 -16 -317 1 -15 1 -57 0
-75 -1 -29 11 -207 17 -253 3 -27 8 -68 10 -90 9 -87 10 -93 45 -270 29 -144
97 -386 129 -460 5 -11 21 -51 35 -90 15 -38 46 -112 71 -163 24 -51 44 -96
44 -100 0 -5 5 -13 12 -20 6 -6 13 -18 14 -25 1 -8 14 -32 28 -55 14 -23 26
-44 26 -46 0 -18 175 -286 237 -363 18 -23 33 -45 33 -49 0 -3 8 -14 18 -23
10 -9 33 -36 52 -61 48 -62 118 -137 231 -250 88 -86 119 -115 214 -196 63
-54 253 -194 263 -194 6 0 12 -4 14 -8 4 -10 108 -76 223 -142 46 -27 233
-120 288 -144 20 -9 53 -23 74 -32 33 -15 215 -82 238 -88 6 -2 17 -5 25 -8
51 -17 98 -31 205 -57 128 -32 134 -33 265 -55 196 -33 292 -40 550 -40 234 0
343 7 490 30 19 3 48 7 65 10 16 2 66 11 110 20 44 9 87 18 95 19 8 2 15 4 15
5 0 1 10 3 23 6 44 8 197 53 287 85 50 17 95 32 100 33 6 1 28 10 50 20 49 22
88 37 95 38 3 0 23 10 45 21 22 12 42 21 45 22 9 1 194 96 225 115 17 10 47
28 68 39 92 51 374 250 433 306 6 5 35 30 64 55 163 137 350 344 538 595 9 13
90 136 125 192 15 24 27 46 27 49 0 4 6 15 14 23 12 15 130 239 131 251 1 3
10 23 22 45 11 22 21 43 22 48 0 4 9 26 19 50 10 23 27 67 38 97 10 30 23 58
29 62 5 4 7 8 3 8 -4 0 -3 12 3 28 9 22 68 220 84 282 11 43 45 214 49 247 2
21 5 38 6 38 4 0 10 47 26 200 2 22 6 101 9 175 3 74 5 137 6 140 1 3 1 9 0
14 -1 4 -4 67 -6 140 -3 72 -7 145 -9 161 -2 17 -7 55 -10 85 -14 113 -18 138
-47 280 -33 160 -33 160 -49 210 -6 19 -13 45 -16 58 -12 60 -107 319 -147
402 -12 25 -22 47 -22 50 -3 16 -71 146 -80 152 -5 4 -7 8 -2 8 4 0 -4 18 -18
40 -14 22 -25 42 -25 45 0 3 -18 34 -40 69 -22 35 -40 68 -40 75 0 6 -3 11 -7
11 -5 0 -26 28 -48 63 -37 58 -172 242 -205 278 -8 9 -37 43 -65 75 -70 81
-258 267 -330 327 -33 27 -62 53 -65 56 -9 12 -234 177 -267 197 -18 10 -33
22 -33 26 0 4 -4 8 -9 8 -5 0 -47 23 -93 52 -125 78 -344 185 -493 242 -38 15
-79 31 -90 36 -16 7 -85 30 -105 35 -3 1 -12 5 -20 8 -52 22 -366 97 -470 112
-25 3 -56 8 -70 10 -102 17 -185 24 -328 30 -68 2 -126 7 -131 9 -5 3 -10 3
-13 0z m-578 -2112 c41 -11 89 -26 105 -33 17 -7 32 -13 35 -14 121 -42 310
-188 395 -305 14 -19 29 -35 33 -35 5 0 35 31 67 70 32 38 74 83 93 100 56 49
173 126 232 152 30 13 62 28 70 32 17 9 78 24 82 20 2 -1 13 3 25 9 59 32 361
37 443 8 8 -3 26 -7 40 -10 86 -14 280 -114 360 -185 63 -56 77 -70 114 -112
49 -55 116 -159 145 -224 13 -27 27 -59 32 -70 11 -24 14 -35 38 -145 10 -46
17 -117 17 -157 -1 -40 3 -73 7 -73 5 0 5 -5 2 -11 -4 -5 -9 -25 -12 -42 -12
-74 -38 -161 -74 -252 -7 -16 -13 -32 -14 -35 -4 -16 -47 -105 -53 -110 -4 -3
-19 -30 -34 -60 -26 -52 -53 -101 -71 -125 -4 -5 -28 -41 -54 -80 -71 -107
-172 -241 -215 -287 -10 -10 -18 -20 -18 -23 0 -3 -8 -13 -17 -23 -10 -10 -52
-56 -94 -103 -122 -134 -299 -307 -399 -388 -23 -19 -48 -40 -54 -46 -15 -15
-207 -166 -236 -185 -12 -8 -36 -26 -53 -38 -50 -37 -183 -123 -280 -181 l-88
-53 -39 26 c-22 14 -40 23 -40 19 0 -5 -4 -3 -8 2 -8 11 -72 53 -114 74 -16 8
-28 18 -28 23 0 4 -7 8 -15 8 -8 0 -15 5 -15 10 0 6 -7 10 -15 10 -8 0 -15 5
-15 10 0 6 -7 10 -15 10 -8 0 -15 5 -15 10 0 6 -4 10 -10 10 -5 0 -31 16 -57
36 -27 20 -61 45 -77 57 -16 12 -35 28 -42 35 -7 6 -17 12 -22 12 -6 0 -12 3
-14 8 -1 4 -39 36 -83 72 -189 153 -409 368 -564 550 -35 41 -67 77 -71 80 -3
3 -17 21 -30 40 -14 19 -32 44 -42 54 -58 63 -241 353 -297 471 -13 28 -28 58
-33 68 -42 85 -86 241 -93 331 -2 23 -5 47 -6 52 -1 5 -1 11 0 14 1 3 4 34 6
70 3 65 27 187 44 225 5 11 19 45 30 75 60 151 194 313 344 413 72 48 102 64
202 107 28 11 56 21 80 26 11 3 47 11 80 18 89 20 310 13 405 -12z"/>
</g>
</svg>
